<svg xmlns="http://www.w3.org/2000/svg" viewBox="0 0 4173 591.33"><defs><style>.cls-1{fill:#d8a462;}.cls-2{fill:#d8a462;}.cls-3{fill:#d8a462;}</style></defs><title>logo-distillery</title><g id="Layer_2" data-name="Layer 2"><g id="Layer_1-2" data-name="Layer 1"><path class="cls-1" d="M860.09,509.33c-42.51,0-81-3.45-113.72-6.89V88.89A860.84,860.84,0,0,1,856.07,82c157.95,0,240.66,101.66,240.66,209.64C1096.73,404.79,1018.05,509.33,860.09,509.33Zm0-388.28c-25.27,0-52.84,1.73-67.78,4.6V465.11c17.81,3.44,40.21,4.59,73.52,4.59,124.06,0,180.93-78.11,180.93-178.06C1046.76,194,982.43,121.05,860.09,121.05Z"/><path class="cls-1" d="M1232.85,506.17v-421h46v421Z"/><path class="cls-1" d="M1519.45,513.06c-47.67,0-85-14.93-121.76-39l22.4-40.21c32.17,23,68.93,37.34,101.67,37.34,54,0,79.26-35.61,79.26-73.52,0-36.76-14.36-58.59-83.28-89-73-32.17-100-64.91-100-115.45,0-60.88,51.7-114.88,128.66-114.88,35.61,0,69.5,12.07,93.62,28.73L1619.4,146c-20.68-14.93-48.25-25.85-75.82-25.85-52.84,0-79.84,32.17-79.84,70.65,0,29.3,20.11,52.84,71.8,76.39,87.88,39.64,112.57,68.93,112.57,125.22C1648.11,460.8,1592.4,513.06,1519.45,513.06Z"/><path class="cls-1" d="M1928.41,126.51V506.17h-46V126.51H1741.74V85.16h326.81v41.35Z"/><path class="cls-1" d="M2187.43,506.17v-421h46v421Z"/><path class="cls-1" d="M2383.87,506.17v-421h46V464.81h200.45v41.36Z"/><path class="cls-1" d="M2742.26,506.17v-421h46V464.81h200.45v41.36Z"/><path class="cls-1" d="M3100.66,506.17v-421h246.41v41.35H3146.61V271.83H3327v41.35H3146.61V464.81h200.46v41.36Z"/><path class="cls-1" d="M3720.4,507.61l-112-166c-9.19.58-18.38,1.15-28.15,1.15-13.78,0-33.88-.57-47.67-1.15v166h-45.95v-417c31-4,62-6.89,97.07-6.89,108.56,0,162,54,162,126.36,0,58.59-32.74,102.81-91.9,121.77l122.35,175.76ZM3590.6,125.07c-19.53,0-43.09,1.16-58,4.6V300.83a470.77,470.77,0,0,0,51.12,2.87c78.69,0,112.58-36.18,112.58-90.75C3696.28,163.56,3659.52,125.07,3590.6,125.07Z"/><path class="cls-1" d="M4024.81,319.5V506.17h-45.95V318.93L3831.25,85.16h51.69l120.62,195.28,118.9-195.28H4173Z"/><path class="cls-1" d="M156.53,591.33H100V556.54h56.53c143.85,0,260.88-117,260.88-260.88S300.38,34.78,156.53,34.78H0V0H156.53c163,0,295.66,132.64,295.66,295.66S319.56,591.33,156.53,591.33Z"/><path class="cls-2" d="M208.76,479.71l-9.49-33.47c67-19,113.79-80.93,113.79-150.58,0-86.3-70.22-156.52-156.52-156.52V104.35c105.48,0,191.3,85.83,191.3,191.31C347.84,380.79,290.65,456.47,208.76,479.71Z"/><path class="cls-3" d="M234,335.24l-31-15.83A52.18,52.18,0,0,0,125.13,254L104.2,226.21A87,87,0,0,1,234,335.24Z"/></g></g></svg>